<svg xmlns="http://www.w3.org/2000/svg" width="22" height="22" viewBox="0 0 22 22">
  <path fill="#71A188" stroke="#71A188" stroke-linecap="round" stroke-linejoin="round" d="M188.284914,45.2632636 L183.773735,40.8111574 C186.561289,37.6588199 186.436495,32.8546025 183.395194,29.8529629 C181.858026,28.3356001 179.813852,27.5 177.639746,27.5 C175.46564,27.5 173.421466,28.3356001 171.884054,29.8529629 C170.346641,31.3700841 169.5,33.3875995 169.5,35.5333528 C169.5,37.6793477 170.346641,39.69638 171.884054,41.2137428 C173.421466,42.7308641 175.465395,43.5664641 177.639501,43.5664641 C179.506517,43.5664641 181.277122,42.9484582 182.713966,41.8133945 L187.246922,46.2877189 C187.390313,46.4292396 187.578238,46.5 187.765918,46.5 C187.953598,46.5 188.141523,46.4292396 188.284914,46.2877189 C188.571695,46.004919 188.571695,45.5460635 188.284914,45.2632636 Z M172.922046,40.1892874 C171.662116,38.945789 170.968164,37.2922185 170.968164,35.5333528 C170.968164,33.7744871 171.662116,32.1211582 172.922046,30.8776597 C174.18222,29.6339197 175.85764,28.9490175 177.639746,28.9490175 C179.422097,28.9490175 181.097028,29.6339197 182.357202,30.8774182 C184.958299,33.4448357 184.958299,37.6221115 182.357202,40.1895289 C181.097272,41.4327859 179.421608,42.1176882 177.639501,42.1176882 C175.85764,42.1179297 174.18222,41.4330274 172.922046,40.1892874 Z" transform="translate(-168 -26)"/>
</svg>
